<?xml version="1.0" encoding="UTF-8"?>
<!-- Generator: visioncortex VTracer 0.6.3 -->
<svg version="1.1" xmlns="http://www.w3.org/2000/svg" width="1280" height="1280">
<path d="M0 0 C1.08 -0 2.17 -0.01 3.28 -0.01 C4.49 -0.01 5.69 -0 6.94 -0 C8.85 -0 8.85 -0 10.8 -0 C14.37 -0.01 17.93 -0.01 21.5 -0 C25.37 -0 29.24 -0 33.11 -0.01 C39.9 -0.01 46.7 -0.01 53.49 -0.01 C63.59 -0 73.69 -0.01 83.79 -0.01 C101.83 -0.01 119.86 -0.01 137.9 -0.01 C153.68 -0.01 169.46 -0.01 185.24 -0.01 C186.29 -0.01 187.33 -0.01 188.41 -0.01 C192.65 -0.01 196.89 -0.01 201.14 -0.01 C240.96 -0.01 280.79 -0.01 320.62 -0 C356.04 0 391.46 -0 426.88 -0.01 C466.63 -0.01 506.38 -0.01 546.14 -0.01 C550.37 -0.01 554.61 -0.01 558.84 -0.01 C560.41 -0.01 560.41 -0.01 562 -0.01 C577.78 -0.01 593.55 -0.01 609.33 -0.01 C627.26 -0.01 645.19 -0.01 663.12 -0.01 C673.17 -0 683.21 -0 693.26 -0.01 C699.96 -0.01 706.66 -0.01 713.35 -0 C717.18 -0 721 -0 724.83 -0.01 C728.93 -0.01 733.04 -0.01 737.15 -0 C738.35 -0 739.56 -0.01 740.8 -0.01 C742.43 -0 742.43 -0 744.08 0 C745.03 0 745.97 0 746.93 0 C749.04 0.13 749.04 0.13 750.04 1.13 C750.14 3.57 750.18 5.99 750.17 8.44 C750.17 9.12 750.18 9.79 750.18 10.49 C750.17 13.9 749.87 16.85 749.04 20.13 C748.85 21.74 748.68 23.35 748.54 24.97 C748.46 25.89 748.38 26.8 748.29 27.75 C748.21 28.7 748.13 29.65 748.04 30.63 C747.88 32.51 747.71 34.4 747.54 36.28 C747.47 37.11 747.4 37.95 747.32 38.81 C747.06 40.99 746.58 43 746.04 45.13 C745.84 47.79 745.67 50.45 745.54 53.13 C745.18 60.59 745.18 60.59 744.56 63.06 C743.98 65.37 743.75 67.59 743.54 69.97 C743.46 70.89 743.38 71.8 743.29 72.75 C743.21 73.7 743.13 74.65 743.04 75.63 C742.88 77.51 742.71 79.4 742.54 81.28 C742.47 82.11 742.4 82.95 742.32 83.81 C742.06 85.99 741.58 88 741.04 90.13 C740.84 92.79 740.67 95.45 740.54 98.13 C740.18 105.59 740.18 105.59 739.56 108.06 C738.98 110.37 738.75 112.59 738.54 114.97 C738.46 115.89 738.38 116.8 738.29 117.75 C738.21 118.7 738.13 119.65 738.04 120.63 C737.88 122.51 737.71 124.4 737.54 126.28 C737.47 127.11 737.4 127.95 737.32 128.81 C737.06 130.99 736.58 133 736.04 135.13 C735.86 137.54 735.72 139.96 735.6 142.38 C735.03 152.69 733.84 162.89 731.98 173.06 C730.96 178.83 730.63 184.58 730.38 190.43 C730.24 193.55 730.04 196.14 729.04 199.13 C728.84 200.7 728.68 202.29 728.54 203.87 C728.46 204.79 728.38 205.71 728.29 206.66 C728.21 207.62 728.13 208.58 728.04 209.56 C727.88 211.46 727.71 213.35 727.54 215.25 C727.47 216.09 727.4 216.93 727.32 217.79 C727.06 219.98 726.58 221.99 726.04 224.13 C725.84 226.79 725.67 229.45 725.54 232.13 C725.18 239.59 725.18 239.59 724.56 242.06 C723.98 244.37 723.75 246.59 723.54 248.97 C723.42 250.34 723.42 250.34 723.29 251.75 C723.21 252.7 723.13 253.65 723.04 254.63 C722.88 256.51 722.71 258.4 722.54 260.28 C722.47 261.11 722.4 261.95 722.32 262.81 C722.06 264.99 721.58 267 721.04 269.13 C720.84 271.79 720.67 274.45 720.54 277.13 C720.18 284.59 720.18 284.59 719.56 287.06 C718.98 289.37 718.75 291.59 718.54 293.97 C718.46 294.89 718.38 295.8 718.29 296.75 C718.21 297.7 718.13 298.65 718.04 299.63 C717.88 301.51 717.71 303.4 717.54 305.28 C717.47 306.11 717.4 306.95 717.32 307.81 C717.06 309.99 716.58 312 716.04 314.13 C715.84 316.79 715.67 319.45 715.54 322.13 C715.18 329.59 715.18 329.59 714.56 332.06 C713.98 334.37 713.75 336.59 713.54 338.97 C713.46 339.89 713.38 340.8 713.29 341.75 C713.21 342.7 713.13 343.65 713.04 344.63 C712.88 346.51 712.71 348.4 712.54 350.28 C712.47 351.11 712.4 351.95 712.32 352.81 C712.06 354.99 711.58 357 711.04 359.13 C710.86 361.54 710.72 363.96 710.6 366.38 C710.03 376.69 708.84 386.89 706.98 397.06 C705.96 402.83 705.63 408.58 705.38 414.43 C705.24 417.55 705.04 420.14 704.04 423.13 C703.84 424.7 703.68 426.29 703.54 427.87 C703.46 428.79 703.38 429.71 703.29 430.66 C703.17 432.1 703.17 432.1 703.04 433.56 C702.88 435.46 702.71 437.35 702.54 439.25 C702.47 440.09 702.4 440.93 702.32 441.79 C702.06 443.98 701.58 445.99 701.04 448.13 C700.84 450.79 700.67 453.45 700.54 456.13 C700.18 463.59 700.18 463.59 699.56 466.06 C698.98 468.37 698.75 470.59 698.54 472.97 C698.46 473.89 698.38 474.8 698.29 475.75 C698.21 476.7 698.13 477.65 698.04 478.63 C697.88 480.51 697.71 482.4 697.54 484.28 C697.47 485.11 697.4 485.95 697.32 486.81 C697.06 488.99 696.58 491 696.04 493.13 C695.84 495.79 695.67 498.45 695.54 501.13 C695.18 508.59 695.18 508.59 694.56 511.06 C693.98 513.37 693.75 515.59 693.54 517.97 C693.46 518.89 693.38 519.8 693.29 520.75 C693.17 522.17 693.17 522.17 693.04 523.63 C692.88 525.51 692.71 527.4 692.54 529.28 C692.47 530.11 692.4 530.95 692.32 531.81 C692.06 533.99 691.58 536 691.04 538.13 C690.84 540.79 690.67 543.45 690.54 546.13 C690.18 553.59 690.18 553.59 689.56 556.06 C688.98 558.37 688.75 560.59 688.54 562.97 C688.46 563.89 688.38 564.8 688.29 565.75 C688.17 567.17 688.17 567.17 688.04 568.63 C687.88 570.51 687.71 572.4 687.54 574.28 C687.47 575.11 687.4 575.95 687.32 576.81 C687.06 578.99 686.58 581 686.04 583.13 C685.86 585.54 685.72 587.96 685.6 590.38 C685.02 600.89 683.7 611.24 681.98 621.63 C681.11 627.06 680.73 632.47 680.43 637.96 C679.9 647.43 678.67 656.8 676.98 666.13 C676.01 671.64 675.64 677.11 675.38 682.7 C675.14 687.75 675.14 687.75 674.56 690.05 C674 692.31 673.77 694.47 673.58 696.79 C673.5 697.69 673.42 698.58 673.34 699.5 C673.19 701.36 673.03 703.21 672.88 705.06 C671.59 719.7 667.34 731.97 657.35 742.94 C656.66 743.7 656.66 743.7 655.95 744.48 C653.49 747.04 651.64 748.75 648.04 749.13 C648.04 749.79 648.04 750.45 648.04 751.13 C646.59 751.91 645.13 752.68 643.67 753.44 C642.86 753.87 642.04 754.3 641.21 754.74 C633.73 758.01 626.78 759.57 618.64 759.5 C617.3 759.51 617.3 759.51 615.93 759.52 C612.95 759.53 609.97 759.52 606.98 759.51 C604.82 759.51 602.65 759.51 600.48 759.52 C594.54 759.53 588.6 759.53 582.66 759.52 C576.25 759.51 569.83 759.52 563.42 759.53 C551.59 759.54 539.76 759.54 527.92 759.53 C516.99 759.53 506.06 759.52 495.13 759.53 C494.04 759.53 494.04 759.53 492.93 759.53 C489.98 759.53 487.04 759.53 484.09 759.53 C456.47 759.54 428.85 759.53 401.22 759.52 C376.69 759.5 352.16 759.5 327.63 759.52 C300.06 759.53 272.48 759.54 244.91 759.53 C241.97 759.53 239.03 759.53 236.09 759.53 C235.37 759.53 234.64 759.53 233.9 759.53 C222.97 759.52 212.05 759.53 201.13 759.53 C188.7 759.54 176.28 759.54 163.86 759.52 C157.52 759.52 151.18 759.51 144.84 759.52 C139.04 759.53 133.23 759.53 127.43 759.51 C125.33 759.51 123.23 759.51 121.14 759.52 C108.75 759.56 97.56 759.45 86.35 753.44 C85.11 752.78 85.11 752.78 83.84 752.11 C83.25 751.79 82.65 751.46 82.04 751.13 C82.04 750.47 82.04 749.81 82.04 749.13 C81.16 748.72 81.16 748.72 80.27 748.3 C75.76 745.92 71.9 742.84 69.6 738.25 C69.42 737.55 69.23 736.85 69.04 736.13 C68.38 736.13 67.72 736.13 67.04 736.13 C66.08 734.25 65.12 732.38 64.17 730.5 C63.63 729.46 63.1 728.41 62.55 727.34 C60.05 722.01 58.82 717.5 58.54 711.63 C58.26 706.78 57.79 702.05 57.04 697.25 C56.04 690.67 55.61 684.16 55.29 677.52 C55.16 674.34 55.16 674.34 54.54 672.18 C54.02 670.02 53.87 668.07 53.8 665.85 C53.76 665.03 53.73 664.22 53.7 663.37 C53.67 662.51 53.64 661.64 53.6 660.75 C53.3 653.6 52.65 646.66 51.51 639.59 C50.79 634.25 50.55 628.9 50.29 623.52 C50.16 620.34 50.16 620.34 49.54 618.18 C49.02 616.02 48.87 614.07 48.8 611.85 C48.76 611.03 48.73 610.22 48.7 609.37 C48.67 608.51 48.64 607.64 48.6 606.75 C48.3 599.6 47.65 592.66 46.51 585.59 C45.79 580.25 45.55 574.9 45.29 569.52 C45.16 566.34 45.16 566.34 44.54 564.18 C44.02 562.02 43.87 560.07 43.8 557.85 C43.76 557.03 43.73 556.22 43.7 555.37 C43.67 554.51 43.64 553.64 43.6 552.75 C43.3 545.6 42.65 538.66 41.51 531.59 C40.79 526.25 40.55 520.9 40.29 515.52 C40.16 512.34 40.16 512.34 39.54 510.18 C39.02 508.02 38.87 506.07 38.8 503.85 C38.76 503.03 38.73 502.22 38.7 501.37 C38.67 500.51 38.64 499.64 38.6 498.75 C38.3 491.6 37.65 484.66 36.51 477.59 C35.79 472.25 35.55 466.9 35.29 461.52 C35.16 458.34 35.16 458.34 34.54 456.18 C34.02 454.02 33.87 452.07 33.8 449.85 C33.76 449.03 33.73 448.22 33.7 447.37 C33.67 446.51 33.64 445.64 33.6 444.75 C33.3 437.6 32.65 430.66 31.51 423.59 C30.79 418.25 30.55 412.9 30.29 407.52 C30.16 404.34 30.16 404.34 29.54 402.18 C29.02 400.02 28.87 398.07 28.8 395.85 C28.76 395.03 28.73 394.22 28.7 393.37 C28.67 392.51 28.64 391.64 28.6 390.75 C28.3 383.6 27.65 376.66 26.51 369.59 C25.79 364.25 25.55 358.9 25.29 353.52 C25.16 350.34 25.16 350.34 24.54 348.18 C24.02 346.02 23.87 344.07 23.8 341.85 C23.76 341.03 23.73 340.22 23.7 339.37 C23.65 338.08 23.65 338.08 23.6 336.75 C23.3 329.6 22.65 322.66 21.51 315.59 C20.79 310.25 20.55 304.9 20.29 299.52 C20.16 296.34 20.16 296.34 19.54 294.18 C19.02 292.02 18.87 290.07 18.8 287.85 C18.76 287.03 18.73 286.22 18.7 285.37 C18.65 284.08 18.65 284.08 18.6 282.75 C18.3 275.6 17.65 268.66 16.51 261.59 C15.79 256.25 15.55 250.9 15.29 245.52 C15.16 242.34 15.16 242.34 14.54 240.18 C14.02 238.02 13.87 236.07 13.8 233.85 C13.76 233.03 13.73 232.22 13.7 231.37 C13.67 230.51 13.64 229.64 13.6 228.75 C13.3 221.6 12.65 214.66 11.51 207.59 C10.79 202.25 10.55 196.9 10.29 191.52 C10.16 188.34 10.16 188.34 9.54 186.18 C9.02 184.02 8.87 182.07 8.8 179.85 C8.76 179.03 8.73 178.22 8.7 177.37 C8.67 176.51 8.64 175.64 8.6 174.75 C8.3 167.6 7.65 160.66 6.51 153.59 C5.79 148.25 5.55 142.9 5.29 137.52 C5.16 134.34 5.16 134.34 4.54 132.18 C4.02 130.02 3.87 128.07 3.8 125.85 C3.75 124.63 3.75 124.63 3.7 123.37 C3.65 122.08 3.65 122.08 3.6 120.75 C3.3 113.6 2.65 106.66 1.51 99.59 C0.79 94.25 0.55 88.9 0.29 83.52 C0.16 80.34 0.16 80.34 -0.46 78.18 C-0.98 76.03 -1.13 74.09 -1.2 71.89 C-1.24 71.07 -1.27 70.26 -1.3 69.42 C-1.33 68.56 -1.36 67.7 -1.4 66.81 C-1.71 59.36 -2.39 52.12 -3.49 44.74 C-4.16 39.6 -4.44 34.45 -4.71 29.27 C-4.85 26.31 -4.85 26.31 -5.46 24.24 C-6.03 21.83 -6.09 19.65 -6.09 17.18 C-6.09 15.78 -6.09 15.78 -6.09 14.36 C-6.09 13.39 -6.09 12.43 -6.08 11.44 C-6.09 10.46 -6.09 9.49 -6.09 8.48 C-6.09 7.56 -6.09 6.63 -6.09 5.68 C-6.09 4.83 -6.09 3.98 -6.09 3.1 C-5.83 -0.84 -3.39 0 0 0 Z M176.37 120.83 C172.33 127.79 175.25 138.77 176.26 146.52 C177.02 152.51 177.43 158.48 177.7 164.51 C177.83 167.24 177.99 169.87 178.54 172.55 C179.03 175.04 179.21 177.34 179.29 179.86 C179.32 180.76 179.35 181.65 179.38 182.57 C179.42 183.52 179.45 184.46 179.48 185.44 C179.79 193.46 180.46 201.27 181.57 209.23 C182.18 214.3 182.47 219.36 182.7 224.46 C182.83 227.21 182.99 229.86 183.54 232.56 C184.03 235.04 184.21 237.34 184.29 239.86 C184.34 241.21 184.34 241.21 184.38 242.57 C184.42 243.52 184.45 244.46 184.48 245.44 C184.79 253.46 185.46 261.27 186.57 269.23 C187.18 274.3 187.47 279.36 187.7 284.46 C187.83 287.21 187.99 289.86 188.54 292.56 C189.03 295.04 189.21 297.34 189.29 299.86 C189.32 300.76 189.35 301.65 189.38 302.57 C189.42 303.52 189.45 304.46 189.48 305.44 C189.79 313.44 190.46 321.23 191.57 329.16 C192.2 334.47 192.48 339.77 192.7 345.1 C192.83 347.96 192.96 350.73 193.54 353.54 C194.33 357.62 194.33 361.73 194.48 365.88 C194.78 373.28 195.35 380.57 196.31 387.92 C197.05 393.77 197.44 399.62 197.7 405.51 C197.83 408.24 197.99 410.87 198.54 413.55 C199.03 416.04 199.21 418.34 199.29 420.86 C199.32 421.76 199.35 422.65 199.38 423.57 C199.42 424.52 199.45 425.46 199.48 426.44 C199.79 434.46 200.46 442.27 201.57 450.23 C202.18 455.3 202.47 460.36 202.7 465.46 C202.83 468.21 202.99 470.86 203.54 473.56 C204.03 476.04 204.21 478.34 204.29 480.86 C204.32 481.76 204.35 482.65 204.38 483.57 C204.42 484.52 204.45 485.46 204.48 486.44 C204.79 494.46 205.46 502.27 206.57 510.23 C207.18 515.27 207.47 520.3 207.7 525.37 C207.84 528.29 208.04 531.12 208.54 534 C209.23 538.32 209.32 542.63 209.48 547 C209.8 554.8 210.5 562.39 211.57 570.13 C212.25 575.43 212.48 580.76 212.7 586.1 C212.83 588.97 212.96 591.74 213.55 594.56 C214.31 598.53 214.29 602.52 214.42 606.56 C214.85 617.87 216.32 628.95 218.04 640.13 C218.7 640.13 219.36 640.13 220.04 640.13 C220.04 640.79 220.04 641.45 220.04 642.13 C221.43 642.38 222.83 642.6 224.23 642.81 C225.01 642.94 225.78 643.07 226.59 643.2 C229.9 643.1 231.44 642.15 234.04 640.13 C234.76 637.52 234.76 637.52 234.6 634.52 C234.59 632.84 234.59 632.84 234.58 631.12 C234.55 629.93 234.52 628.73 234.48 627.5 C234.46 626.28 234.44 625.05 234.42 623.79 C234.26 615.8 233.67 607.98 232.55 600.07 C231.89 594.97 231.61 589.88 231.38 584.74 C231.25 582.03 231.1 579.42 230.54 576.75 C229.76 572.64 229.75 568.49 229.6 564.31 C229.29 556.49 228.59 548.88 227.51 541.13 C226.83 535.82 226.61 530.49 226.38 525.15 C226.26 522.29 226.13 519.53 225.54 516.72 C224.75 512.62 224.75 508.48 224.6 504.31 C224.29 496.47 223.59 488.83 222.51 481.06 C221.91 476 221.61 470.96 221.38 465.88 C221.25 462.96 221.04 460.13 220.54 457.25 C219.85 452.93 219.76 448.62 219.6 444.25 C219.29 436.43 218.59 428.81 217.51 421.06 C216.91 416 216.61 410.96 216.38 405.88 C216.25 402.96 216.04 400.13 215.54 397.25 C214.85 392.93 214.76 388.62 214.6 384.25 C214.29 376.43 213.59 368.81 212.51 361.06 C211.91 356 211.61 350.96 211.38 345.88 C211.25 342.96 211.04 340.13 210.54 337.25 C209.85 332.93 209.76 328.62 209.6 324.25 C209.29 316.43 208.59 308.81 207.51 301.06 C206.91 296 206.61 290.96 206.38 285.88 C206.25 282.96 206.04 280.13 205.54 277.25 C204.85 272.93 204.76 268.62 204.6 264.25 C204.29 256.43 203.59 248.81 202.51 241.06 C201.91 236 201.61 230.96 201.38 225.88 C201.25 222.96 201.04 220.13 200.54 217.25 C199.85 212.93 199.76 208.62 199.6 204.25 C199.29 196.43 198.59 188.81 197.51 181.06 C196.91 176 196.61 170.96 196.38 165.88 C196.25 162.97 196.05 160.14 195.54 157.27 C194.98 153.74 194.86 150.3 194.75 146.74 C194.59 133.61 194.59 133.61 191.04 121.13 C188.5 118.75 187.5 118.16 183.98 117.88 C180.68 118.16 178.72 118.43 176.37 120.83 Z M365.04 121.13 C362.49 124.95 362.76 128.05 362.78 132.49 C362.78 133.36 362.77 134.23 362.77 135.12 C362.76 138.05 362.76 140.99 362.77 143.92 C362.76 146.04 362.76 148.15 362.75 150.26 C362.74 156.09 362.74 161.93 362.74 167.76 C362.74 174.04 362.72 180.32 362.71 186.6 C362.69 199.62 362.68 212.65 362.68 225.68 C362.68 226.38 362.68 227.09 362.67 227.82 C362.67 228.53 362.67 229.24 362.67 229.97 C362.67 237.83 362.66 245.69 362.66 253.55 C362.64 277.27 362.62 301 362.62 324.72 C362.62 325.48 362.62 326.24 362.62 327.02 C362.62 330.1 362.62 333.18 362.62 336.25 C362.62 338.57 362.62 340.88 362.62 343.2 C362.62 343.96 362.62 344.73 362.62 345.52 C362.61 369.57 362.59 393.61 362.56 417.66 C362.51 444.66 362.49 471.67 362.49 498.67 C362.49 501.55 362.49 504.43 362.49 507.3 C362.49 508.01 362.49 508.72 362.49 509.45 C362.49 520.87 362.47 532.28 362.45 543.7 C362.43 555.17 362.42 566.64 362.44 578.11 C362.44 584.32 362.44 590.54 362.42 596.76 C362.4 602.44 362.4 608.13 362.42 613.82 C362.43 615.88 362.42 617.94 362.41 620 C362.39 622.8 362.4 625.59 362.42 628.38 C362.41 629.19 362.4 630 362.38 630.83 C362.45 634.9 362.86 637.4 365.45 640.62 C367.74 643.17 367.74 643.17 370.1 643.89 C370.74 643.86 371.38 643.84 372.04 643.81 C372.68 643.82 373.32 643.82 373.98 643.82 C377.33 642.69 378.84 640.87 381.04 638.13 C381.53 635.06 381.71 632.56 381.67 629.5 C381.67 628.62 381.68 627.75 381.69 626.85 C381.7 623.92 381.68 620.98 381.66 618.04 C381.67 615.92 381.67 613.8 381.68 611.68 C381.7 605.84 381.69 600 381.67 594.16 C381.65 587.87 381.66 581.58 381.67 575.28 C381.69 563.66 381.68 552.04 381.66 540.43 C381.64 529.69 381.63 518.96 381.63 508.22 C381.63 507.16 381.63 507.16 381.63 506.07 C381.63 503.18 381.63 500.29 381.64 497.4 C381.64 470.3 381.62 443.2 381.58 416.1 C381.55 392.01 381.54 367.92 381.54 343.83 C381.54 342.29 381.54 340.74 381.54 339.19 C381.54 338.05 381.54 338.05 381.54 336.88 C381.55 333.03 381.55 329.18 381.55 325.33 C381.55 324.57 381.55 323.81 381.55 323.03 C381.55 302.91 381.54 282.79 381.53 262.68 C381.53 261.96 381.53 261.24 381.53 260.51 C381.53 259.79 381.53 259.08 381.52 258.34 C381.52 257.63 381.52 256.92 381.52 256.18 C381.52 254.75 381.52 253.31 381.52 251.88 C381.51 241.86 381.51 231.84 381.51 221.83 C381.51 208.92 381.51 196.01 381.48 183.1 C381.47 176.88 381.46 170.65 381.47 164.43 C381.47 158.73 381.46 153.04 381.44 147.34 C381.44 145.28 381.44 143.21 381.45 141.15 C381.45 138.35 381.44 135.55 381.43 132.75 C381.44 131.54 381.44 131.54 381.44 130.3 C381.4 125.75 380.9 122.74 378.04 119.13 C373.29 117.06 369 117.87 365.04 121.13 Z M553.04 121.13 C552.26 123.67 551.75 125.89 551.35 128.5 C551.17 129.6 551.17 129.6 550.99 130.73 C549.68 139.36 549.41 148.07 549.2 156.79 C549.04 159.13 549.04 159.13 548.56 162 C548.02 165.23 547.75 168.4 547.54 171.66 C547.46 172.88 547.38 174.1 547.29 175.36 C547.13 177.92 546.96 180.47 546.79 183.03 C546.71 184.25 546.63 185.47 546.54 186.72 C546.47 187.83 546.4 188.94 546.32 190.08 C546.07 192.83 545.59 195.42 545.04 198.13 C544.91 199.83 544.82 201.54 544.76 203.25 C544.72 204.2 544.69 205.16 544.65 206.14 C544.61 207.13 544.58 208.11 544.54 209.13 C544.47 211.08 544.4 213.04 544.32 215 C544.29 215.86 544.26 216.73 544.23 217.62 C544.04 220.13 544.04 220.13 543.56 222.54 C542.96 225.56 542.74 228.5 542.54 231.56 C542.46 232.79 542.38 234.01 542.29 235.27 C542.21 236.54 542.13 237.82 542.04 239.13 C541.88 241.65 541.71 244.17 541.54 246.69 C541.47 247.8 541.4 248.92 541.32 250.07 C541.07 252.82 540.59 255.41 540.04 258.13 C539.91 259.83 539.82 261.54 539.76 263.25 C539.72 264.2 539.69 265.16 539.65 266.14 C539.61 267.13 539.58 268.11 539.54 269.13 C539.47 271.08 539.4 273.04 539.32 275 C539.28 276.3 539.28 276.3 539.23 277.62 C539.04 280.13 539.04 280.13 538.56 282.55 C537.96 285.55 537.74 288.47 537.54 291.53 C537.46 292.75 537.38 293.97 537.29 295.22 C537.21 296.49 537.13 297.76 537.04 299.06 C536.88 301.57 536.71 304.08 536.54 306.59 C536.47 307.7 536.4 308.81 536.32 309.95 C536.05 313.05 535.56 316.06 535.04 319.13 C534.92 320.79 534.82 322.46 534.76 324.13 C534.72 325.03 534.69 325.94 534.65 326.87 C534.58 328.75 534.51 330.63 534.44 332.51 C534.4 333.42 534.36 334.32 534.32 335.25 C534.29 336.07 534.26 336.89 534.23 337.73 C534.04 340.13 534.04 340.13 533.56 342.51 C532.95 345.61 532.74 348.63 532.54 351.78 C532.46 353.05 532.38 354.32 532.29 355.63 C532.21 356.96 532.13 358.29 532.04 359.63 C531.88 362.24 531.71 364.85 531.54 367.47 C531.47 368.63 531.4 369.78 531.32 370.97 C531.07 373.77 530.6 376.38 530.04 379.13 C529.91 380.75 529.82 382.37 529.76 384 C529.72 384.9 529.69 385.8 529.65 386.74 C529.61 387.67 529.58 388.6 529.54 389.56 C529.47 391.42 529.4 393.27 529.32 395.12 C529.29 395.94 529.26 396.75 529.23 397.6 C529.04 400.13 529.04 400.13 528.56 403.03 C528.02 406.25 527.75 409.4 527.54 412.66 C527.46 413.88 527.38 415.1 527.29 416.36 C527.13 418.92 526.96 421.47 526.79 424.03 C526.71 425.25 526.63 426.47 526.54 427.72 C526.47 428.83 526.4 429.94 526.32 431.08 C526.07 433.83 525.59 436.42 525.04 439.13 C524.91 440.83 524.82 442.54 524.76 444.25 C524.72 445.2 524.69 446.16 524.65 447.14 C524.61 448.13 524.58 449.11 524.54 450.13 C524.47 452.08 524.4 454.04 524.32 456 C524.29 456.86 524.26 457.73 524.23 458.62 C524.04 461.13 524.04 461.13 523.56 463.54 C522.96 466.56 522.74 469.5 522.54 472.56 C522.46 473.79 522.38 475.01 522.29 476.27 C522.21 477.54 522.13 478.82 522.04 480.13 C521.88 482.65 521.71 485.17 521.54 487.69 C521.43 489.36 521.43 489.36 521.32 491.07 C521.07 493.82 520.59 496.41 520.04 499.13 C519.91 500.83 519.82 502.54 519.76 504.25 C519.72 505.2 519.69 506.16 519.65 507.14 C519.61 508.13 519.58 509.11 519.54 510.13 C519.47 512.08 519.4 514.04 519.32 516 C519.29 516.86 519.26 517.73 519.23 518.62 C519.04 521.13 519.04 521.13 518.56 523.55 C517.96 526.55 517.74 529.47 517.54 532.53 C517.46 533.75 517.38 534.97 517.29 536.22 C517.21 537.49 517.13 538.76 517.04 540.06 C516.88 542.57 516.71 545.08 516.54 547.59 C516.47 548.7 516.4 549.81 516.32 550.95 C516.05 554.05 515.56 557.06 515.04 560.13 C514.92 561.79 514.82 563.46 514.76 565.13 C514.72 566.03 514.69 566.94 514.65 567.87 C514.58 569.75 514.51 571.63 514.44 573.51 C514.4 574.42 514.36 575.32 514.32 576.25 C514.29 577.07 514.26 577.89 514.23 578.73 C514.04 581.13 514.04 581.13 513.56 583.51 C512.95 586.61 512.74 589.63 512.54 592.78 C512.46 594.05 512.38 595.32 512.29 596.63 C512.21 597.96 512.13 599.29 512.04 600.63 C511.88 603.24 511.71 605.85 511.54 608.47 C511.47 609.63 511.4 610.78 511.32 611.97 C511.07 614.77 510.61 617.38 510.04 620.13 C509.77 623.31 509.72 626.49 509.67 629.69 C509.63 630.54 509.59 631.39 509.55 632.26 C509.45 637.47 509.45 637.47 512.34 641.7 C515.78 643.52 518.2 643.49 522.04 643.13 C522.7 642.8 523.36 642.47 524.04 642.13 C524.04 641.47 524.04 640.81 524.04 640.13 C524.7 640.13 525.36 640.13 526.04 640.13 C528.27 629.58 529.43 619.31 529.75 608.53 C529.78 607.64 529.8 606.75 529.83 605.83 C529.85 605.04 529.87 604.25 529.88 603.44 C530.04 601.13 530.04 601.13 530.52 598.73 C531.12 595.71 531.34 592.76 531.54 589.69 C531.62 588.46 531.71 587.24 531.79 585.98 C531.87 584.71 531.96 583.43 532.04 582.13 C532.21 579.6 532.37 577.08 532.54 574.56 C532.61 573.45 532.69 572.33 532.76 571.18 C533.01 568.43 533.5 565.84 534.04 563.13 C534.17 561.42 534.26 559.71 534.32 558 C534.36 557.05 534.4 556.09 534.44 555.11 C534.49 553.63 534.49 553.63 534.54 552.13 C534.61 550.17 534.68 548.21 534.76 546.25 C534.79 545.39 534.82 544.52 534.85 543.63 C535.04 541.13 535.04 541.13 535.53 538.71 C536.13 535.69 536.34 532.75 536.54 529.69 C536.62 528.46 536.71 527.24 536.79 525.98 C536.87 524.71 536.96 523.43 537.04 522.13 C537.21 519.6 537.37 517.08 537.54 514.56 C537.61 513.45 537.69 512.33 537.76 511.18 C538.01 508.43 538.5 505.84 539.04 503.13 C539.17 501.42 539.26 499.71 539.32 498 C539.36 497.05 539.4 496.09 539.44 495.11 C539.49 493.63 539.49 493.63 539.54 492.13 C539.61 490.17 539.68 488.21 539.76 486.25 C539.79 485.39 539.82 484.52 539.85 483.63 C540.04 481.13 540.04 481.13 540.53 478.72 C541.14 475.63 541.35 472.61 541.54 469.47 C541.62 468.2 541.71 466.93 541.79 465.62 C541.88 464.29 541.96 462.96 542.04 461.63 C542.21 459.01 542.37 456.4 542.54 453.78 C542.61 452.62 542.69 451.47 542.76 450.28 C543.01 447.48 543.48 444.87 544.04 442.13 C544.17 440.49 544.26 438.86 544.32 437.22 C544.38 435.86 544.38 435.86 544.44 434.47 C544.47 433.53 544.51 432.59 544.54 431.63 C544.61 429.76 544.68 427.9 544.76 426.03 C544.79 425.21 544.82 424.39 544.85 423.54 C545.04 421.13 545.04 421.13 545.53 418.73 C546.14 415.64 546.35 412.62 546.54 409.47 C546.62 408.2 546.71 406.93 546.79 405.62 C546.88 404.29 546.96 402.96 547.04 401.63 C547.21 399.01 547.37 396.4 547.54 393.78 C547.61 392.62 547.69 391.47 547.76 390.28 C548.01 387.48 548.49 384.87 549.04 382.13 C549.17 380.42 549.26 378.71 549.32 377 C549.36 376.05 549.4 375.09 549.44 374.11 C549.47 373.12 549.51 372.14 549.54 371.13 C549.61 369.17 549.68 367.21 549.76 365.25 C549.79 364.39 549.82 363.52 549.85 362.63 C550.04 360.13 550.04 360.13 550.53 357.71 C551.13 354.69 551.34 351.75 551.54 348.69 C551.62 347.46 551.71 346.24 551.79 344.98 C551.87 343.71 551.96 342.43 552.04 341.13 C552.21 338.6 552.37 336.08 552.54 333.56 C552.65 331.89 552.65 331.89 552.76 330.18 C553.01 327.43 553.5 324.84 554.04 322.13 C554.17 320.42 554.26 318.71 554.32 317 C554.38 315.57 554.38 315.57 554.44 314.11 C554.47 313.12 554.51 312.14 554.54 311.13 C554.61 309.17 554.68 307.21 554.76 305.25 C554.79 304.39 554.82 303.52 554.85 302.63 C555.04 300.13 555.04 300.13 555.53 297.71 C556.13 294.69 556.34 291.75 556.54 288.69 C556.62 287.46 556.71 286.24 556.79 284.98 C556.87 283.71 556.96 282.43 557.04 281.13 C557.21 278.6 557.37 276.08 557.54 273.56 C557.65 271.89 557.65 271.89 557.76 270.18 C558.01 267.43 558.5 264.84 559.04 262.13 C559.17 260.42 559.26 258.71 559.32 257 C559.38 255.57 559.38 255.57 559.44 254.11 C559.47 253.12 559.51 252.14 559.54 251.13 C559.61 249.17 559.68 247.21 559.76 245.25 C559.79 244.39 559.82 243.52 559.85 242.63 C560.04 240.13 560.04 240.13 560.53 237.71 C561.13 234.7 561.34 231.78 561.54 228.72 C561.62 227.5 561.71 226.28 561.79 225.03 C561.87 223.76 561.96 222.49 562.04 221.19 C562.21 218.68 562.37 216.17 562.54 213.66 C562.61 212.55 562.69 211.44 562.76 210.3 C563.04 207.2 563.53 204.19 564.04 201.13 C564.17 199.46 564.26 197.79 564.32 196.12 C564.36 195.22 564.4 194.31 564.44 193.38 C564.51 191.5 564.58 189.62 564.65 187.74 C564.7 186.38 564.7 186.38 564.76 185 C564.79 184.18 564.82 183.37 564.85 182.53 C565.04 180.13 565.04 180.13 565.53 177.74 C566.14 174.64 566.35 171.62 566.54 168.47 C566.62 167.2 566.71 165.93 566.79 164.62 C566.88 163.29 566.96 161.96 567.04 160.63 C567.21 158.01 567.37 155.4 567.54 152.78 C567.61 151.62 567.69 150.47 567.76 149.28 C568.01 146.48 568.48 143.87 569.04 141.13 C569.32 137.94 569.36 134.76 569.42 131.56 C569.45 130.71 569.49 129.86 569.53 128.99 C569.64 123.78 569.64 123.78 566.74 119.56 C561.72 116.89 557.07 117.01 553.04 121.13 Z " fill="#000000" transform="translate(267.9577178955078,366.8746508359909)"/>
<path d="M0 0 C1.63 -0.01 1.63 -0.01 3.3 -0.01 C4.49 -0.01 5.69 -0.01 6.92 -0.01 C8.19 -0.01 9.46 -0.01 10.77 -0.02 C14.3 -0.03 17.83 -0.03 21.36 -0.03 C25.16 -0.03 28.97 -0.04 32.77 -0.04 C41.1 -0.06 49.42 -0.06 57.74 -0.07 C62.94 -0.07 68.14 -0.08 73.33 -0.08 C87.73 -0.09 102.12 -0.1 116.51 -0.11 C117.89 -0.11 117.89 -0.11 119.3 -0.11 C120.23 -0.11 121.15 -0.11 122.1 -0.11 C123.97 -0.11 125.85 -0.11 127.72 -0.11 C128.64 -0.11 129.57 -0.11 130.53 -0.11 C145.56 -0.11 160.6 -0.13 175.63 -0.15 C191.07 -0.18 206.51 -0.19 221.95 -0.19 C230.61 -0.19 239.28 -0.2 247.95 -0.22 C255.33 -0.23 262.71 -0.24 270.09 -0.23 C273.86 -0.22 277.62 -0.23 281.38 -0.24 C285.47 -0.25 289.56 -0.25 293.64 -0.24 C294.82 -0.24 296.01 -0.25 297.22 -0.26 C310.45 -0.18 321.87 3.99 331.66 13.13 C331.66 13.79 331.66 14.45 331.66 15.13 C332.32 15.13 332.98 15.13 333.66 15.13 C344.95 26.73 347.15 41.88 346.96 57.43 C346.95 58.74 346.95 60.06 346.94 61.41 C346.93 64.86 346.9 68.32 346.87 71.77 C346.84 75.31 346.82 78.85 346.81 82.39 C346.78 89.3 346.73 96.22 346.66 103.13 C347.58 103.13 348.5 103.13 349.44 103.12 C371.78 103.06 394.11 103.01 416.45 102.98 C427.25 102.96 438.05 102.94 448.85 102.91 C458.27 102.88 467.69 102.86 477.11 102.85 C482.09 102.85 487.08 102.84 492.06 102.81 C496.76 102.79 501.46 102.79 506.15 102.79 C507.87 102.79 509.59 102.79 511.31 102.77 C523.49 102.7 534.28 104.16 545.66 108.69 C547.24 109.31 547.24 109.31 548.85 109.95 C551.18 110.93 553.43 111.96 555.66 113.13 C555.66 113.79 555.66 114.45 555.66 115.13 C556.25 115.25 556.83 115.36 557.43 115.48 C559.83 116.18 561.39 117.11 563.41 118.57 C564.03 119 564.64 119.43 565.27 119.88 C565.73 120.29 566.19 120.71 566.66 121.13 C566.66 121.79 566.66 122.45 566.66 123.13 C567.2 123.34 567.74 123.54 568.29 123.76 C571.58 125.66 574.26 128.18 576.66 131.13 C576.66 131.79 576.66 132.45 576.66 133.13 C577.32 133.13 577.98 133.13 578.66 133.13 C584.87 141.01 588.91 149.14 591.87 158.73 C592.44 161.06 592.44 161.06 593.66 162.13 C596.2 171.34 598.16 184.87 593.98 193.82 C589.89 200.27 584.92 203.93 577.66 206.13 C572.86 206.7 568.07 206.67 563.24 206.63 C561.78 206.64 560.32 206.64 558.85 206.65 C554.83 206.67 550.8 206.66 546.78 206.65 C542.4 206.64 538.03 206.65 533.65 206.66 C525.98 206.67 518.3 206.67 510.63 206.66 C499.22 206.65 487.82 206.65 476.41 206.67 C456.03 206.69 435.66 206.69 415.29 206.67 C397.46 206.66 379.63 206.66 361.8 206.67 C360.02 206.67 360.02 206.67 358.21 206.67 C353.42 206.67 348.62 206.67 343.82 206.67 C298.8 206.68 253.78 206.67 208.75 206.65 C168.74 206.63 128.73 206.63 88.72 206.65 C43.78 206.67 -1.16 206.68 -46.1 206.67 C-50.89 206.67 -55.68 206.67 -60.47 206.67 C-61.65 206.67 -62.83 206.67 -64.04 206.67 C-81.86 206.66 -99.68 206.67 -117.5 206.68 C-137.76 206.69 -158.02 206.69 -178.28 206.66 C-189.62 206.65 -200.97 206.65 -212.31 206.67 C-219.88 206.68 -227.45 206.67 -235.02 206.65 C-239.34 206.64 -243.66 206.64 -247.97 206.65 C-251.9 206.67 -255.83 206.66 -259.76 206.64 C-261.17 206.64 -262.58 206.64 -263.99 206.65 C-273.46 206.71 -280.63 205.9 -288.15 199.88 C-295.57 190.55 -295.18 181.46 -294.02 169.97 C-293.19 164.66 -291.67 160.07 -289.33 155.24 C-288.39 153.25 -287.7 151.29 -287.02 149.19 C-285.4 144.69 -282.67 141.07 -279.86 137.23 C-278.31 135.22 -278.31 135.22 -277.34 133.13 C-276.68 133.13 -276.02 133.13 -275.34 133.13 C-275.09 132.56 -274.84 131.99 -274.59 131.4 C-267.19 117.98 -250.28 109.64 -236.16 105.52 C-226.58 102.82 -217.57 102.45 -207.68 102.56 C-205.89 102.57 -204.11 102.56 -202.32 102.56 C-197.53 102.56 -192.75 102.59 -187.96 102.62 C-182.94 102.66 -177.91 102.66 -172.89 102.66 C-163.4 102.68 -153.91 102.72 -144.43 102.77 C-133.61 102.83 -122.8 102.85 -111.99 102.88 C-89.77 102.93 -67.55 103.02 -45.34 103.13 C-45.35 102.04 -45.35 102.04 -45.36 100.93 C-45.42 94.05 -45.46 87.17 -45.49 80.28 C-45.51 76.75 -45.53 73.21 -45.56 69.67 C-45.6 65.59 -45.62 61.51 -45.63 57.43 C-45.65 55.55 -45.65 55.55 -45.68 53.64 C-45.68 39.55 -42.43 25.59 -32.34 15.13 C-31.68 15.13 -31.02 15.13 -30.34 15.13 C-30.34 14.47 -30.34 13.81 -30.34 13.13 C-21.75 5.59 -11.6 0.02 0 0 Z M-3.34 47.13 C-3.34 65.61 -3.34 84.09 -3.34 103.13 C98.3 103.13 199.94 103.13 304.66 103.13 C309.03 70.4 309.03 70.4 300.66 42.13 C298.22 41.39 298.22 41.39 295.5 41.5 C294.45 41.49 293.4 41.48 292.31 41.46 C291.16 41.47 290.01 41.49 288.82 41.5 C287.59 41.49 286.37 41.48 285.11 41.47 C281.7 41.46 278.3 41.46 274.89 41.48 C271.22 41.49 267.55 41.47 263.88 41.46 C256.69 41.44 249.5 41.44 242.31 41.45 C236.47 41.47 230.63 41.47 224.78 41.46 C223.54 41.46 223.54 41.46 222.27 41.46 C220.58 41.46 218.89 41.46 217.2 41.46 C201.37 41.44 185.53 41.46 169.7 41.48 C156.11 41.51 142.51 41.5 128.92 41.48 C113.14 41.45 97.36 41.44 81.59 41.46 C79.9 41.46 78.22 41.46 76.54 41.46 C75.71 41.46 74.89 41.46 74.03 41.46 C68.2 41.47 62.36 41.46 56.52 41.45 C49.41 41.44 42.3 41.44 35.19 41.47 C31.56 41.48 27.93 41.48 24.3 41.47 C20.37 41.45 16.44 41.47 12.51 41.5 C11.35 41.49 10.2 41.47 9.01 41.46 C7.96 41.48 6.91 41.49 5.83 41.5 C4.47 41.5 4.47 41.5 3.08 41.5 C-0.11 42.07 -0.11 42.07 -3.34 47.13 Z " fill="#000000" transform="translate(489.336877822876,143.86857223510742)"/>
</svg>
